<svg title="evo" xmlns:dc="http://purl.org/dc/elements/1.1/" xmlns:cc="http://creativecommons.org/ns#" xmlns:rdf="http://www.w3.org/1999/02/22-rdf-syntax-ns#" xmlns:svg="http://www.w3.org/2000/svg" xmlns="http://www.w3.org/2000/svg" viewBox="0 0 786.8667 229.77333" height="31" width="96.3438" xml:space="preserve" id="svg2" version="1.1">
  <path class="logo-path" d="M208.5,192.4c-21.6,25.8-57.1,40-91.6,40c-66.7,0-116.9-46-116.9-116C0,54.3,42.3,0,108.6,0
    C170.3,0,214,52,214,114.2c0,6-0.5,12-1.4,17H58c3.2,31.3,28.5,52.9,60.3,52.9c25.3,0,45.6-14.3,56.2-25.8L208.5,192.4z M152.8,87.5
    C151,67.7,133,48.3,108.6,48.3c-24.9,0-45.1,18.9-47.9,39.1H152.8z M337.4,140.9L398.6,4.6h62.1L358.1,227.9h-41.4L214,4.6h62.1
    L337.4,140.9z M577.2,0C644.9,0,696,52,696,116.5c0,64.4-51.1,116-118.8,116c-67.7,0-118.8-51.6-118.8-116C458.5,52,509.6,0,577.2,0
    z M577.2,177.2c35,0,58.9-27.2,58.9-60.8c0-33.6-23.9-61.2-58.9-61.2c-35,0-58.9,27.6-58.9,61.2
    C518.3,150.1,542.3,177.2,577.2,177.2z M718.7,4.7v3.6h-9v27.9h-3.9V8.4h-9V4.7H718.7z M739.4,31.5h-2.3L726.1,14v22.2h-3.9V4.7h2.2
    l13.7,21.7L752,4.7h2.2v31.5h-3.9V14L739.4,31.5z" />
</svg>
