<svg id="Lager_1" data-name="Lager 1" xmlns="http://www.w3.org/2000/svg" viewBox="0 0 177.17 81.39"><title>REF_Logo</title><path d="M16,27.76a1.67,1.67,0,0,0-2.28-.82,1.57,1.57,0,0,0-1.14,2c0.3,0.75.86,1,2,.81l1.58-.31c1.94-.38,3.1.24,3.67,1.69,0.79,2-.12,3.7-2.59,4.68s-4.19.38-5.05-1.49L14,33.62a2,2,0,0,0,2.68.87c1.4-.55,1.67-1.45,1.34-2.29s-0.87-1-2-.8l-1.55.3c-1.79.35-3.06-.27-3.64-1.75-0.67-1.69.16-3.45,2.41-4.34s3.89-.19,4.63,1.43Z" transform="translate(-10.54 -11.15)"/><polygon points="17.07 11.26 13.89 12.29 16.69 20.92 14.85 21.51 12.06 12.88 8.89 13.91 8.41 12.43 16.59 9.78 17.07 11.26"/><path d="M34,18.93c2.82-.73,5.24.56,6.16,4.09s-0.61,5.84-3.39,6.56-5.24-.57-6.15-4.09,0.66-5.86,3.39-6.56m4.16,4.62C37.43,21,36,19.89,34.3,20.32s-2.41,2-1.72,4.66,2,3.65,3.76,3.2,2.43-2.08,1.77-4.63" transform="translate(-10.54 -11.15)"/><path d="M44.53,22.09c0.5,2.5,1.8,3.74,3.51,3.39a2.24,2.24,0,0,0,1.85-2.67l1.93-.39c0.3,2.17-1,4-3.47,4.49-3.06.61-5.17-.93-5.86-4.36s0.77-5.86,3.67-6.44c2.28-.46,4.28.39,4.93,2.7l-2,.4a2.24,2.24,0,0,0-2.67-1.65c-1.67.33-2.43,2-1.93,4.53" transform="translate(-10.54 -11.15)"/><polygon points="46.35 14 44.43 14.3 42.83 3.79 44.76 3.49 45.51 8.44 48.96 2.85 51.13 2.52 47.92 7.51 52.95 13 50.72 13.34 46.85 9.15 45.85 10.72 46.35 14"/><polygon points="57 12.52 55.06 12.73 53.91 2.14 55.85 1.93 56.34 6.44 61.06 5.93 60.57 1.42 62.51 1.21 63.65 11.8 61.72 12.01 61.23 7.47 56.51 7.98 57 12.52"/><path d="M81,11.64c2.91-.18,5,1.55,5.27,5.18s-1.7,5.62-4.57,5.81-5-1.56-5.27-5.18,1.76-5.62,4.58-5.81M84.21,17c-0.17-2.68-1.42-4-3.13-3.89s-2.74,1.53-2.57,4.26,1.3,4,3.08,3.85S84.37,19.6,84.21,17" transform="translate(-10.54 -11.15)"/><polygon points="78.4 0.23 80.35 0.18 80.58 9.25 85.41 9.13 85.44 10.69 78.68 10.86 78.4 0.23"/><path d="M98.44,11.15l2.84,0,2.11,6.43c0.29,0.9.44,1.51,0.44,1.51h0s0.15-.61.47-1.51l2.3-6.35,2.82,0-0.15,10.63-1.93,0,0.12-8.6h0s-0.21.82-.64,2l-2.33,6.53-1.53,0-2.12-6.6c-0.4-1.23-.58-2.05-0.58-2.05h0l-0.12,8.6-1.78,0Z" transform="translate(-10.54 -11.15)"/><path d="M126.66,15.33A1.67,1.67,0,0,0,125,13.58a1.57,1.57,0,0,0-1.92,1.31c-0.07.8,0.32,1.3,1.39,1.6L126,16.92c1.91,0.53,2.66,1.6,2.53,3.15-0.19,2.15-1.76,3.26-4.4,3s-3.92-1.53-3.86-3.58l2,0.18a2,2,0,0,0,2,2c1.5,0.13,2.14-.55,2.22-1.45S126.2,18.9,125,18.57l-1.52-.43c-1.76-.49-2.62-1.61-2.48-3.19,0.16-1.81,1.68-3,4.09-2.81s3.57,1.57,3.5,3.35Z" transform="translate(-10.54 -11.15)"/><path d="M132.8,23.75l-1.42-10.93,2,0.27,0.79,6.74a11.32,11.32,0,0,1,.09,1.78h0a11.83,11.83,0,0,1,.59-1.67l2.67-6.28,1.86,0.26,0.9,6.76c0.14,1.1.16,1.79,0.16,1.79h0A13.7,13.7,0,0,1,141,20.8l2.55-6.3,1.79,0.25-4.31,10.14-1.94-.27-0.92-6.88a11.16,11.16,0,0,1-.12-1.71h0a10.72,10.72,0,0,1-.57,1.61L134.77,24Z" transform="translate(-10.54 -11.15)"/><polygon points="137.5 4.13 144.31 5.44 144.02 6.94 139.12 6 138.56 8.96 143.14 9.84 142.85 11.31 138.27 10.44 137.7 13.45 142.7 14.41 142.42 15.89 135.5 14.57 137.5 4.13"/><path d="M158.1,17.27l3.42,0.82c3,0.72,4.75,2.69,3.89,6.27s-3.35,4.8-6.31,4.08l-3.5-.85Zm1.19,9.68c1.93,0.47,3.44-.21,4.12-3S163,20,161.17,19.54l-1.53-.37-1.79,7.43Z" transform="translate(-10.54 -11.15)"/><polygon points="159.1 9.03 165.75 11.03 165.31 12.49 160.53 11.05 159.66 13.94 164.13 15.29 163.7 16.73 159.22 15.38 158.33 18.32 163.22 19.79 162.78 21.25 156.03 19.21 159.1 9.03"/><path d="M179.63,23.27L181.71,24l1.37,7.47a8.33,8.33,0,0,1,.15,1.54h0L186,25.66l1.67,0.62-3.72,10-2-.75-1.4-7.55a9.32,9.32,0,0,1-.19-1.57h0l-2.8,7.48-1.67-.62Z" transform="translate(-10.54 -11.15)"/><polygon points="72.31 81.37 103.6 81.37 103.6 74.86 79.83 74.86 79.83 63.27 103.6 63.27 103.6 56.76 79.83 56.76 79.83 56.71 79.83 45.18 103.6 45.18 103.6 38.66 72.31 38.66 72.31 81.37"/><polygon points="126.58 45.18 150.35 45.18 150.35 38.66 119.06 38.66 119.06 81.37 126.58 81.37 126.58 63.27 150.35 63.27 150.35 56.76 126.58 56.76 126.58 56.71 126.58 45.18"/><path d="M59.62,73.36a11.85,11.85,0,0,0,8.6-11.48A12,12,0,0,0,56.17,49.82H37.35V92.52h7.52V74.43H47c5.45,0,9,3.34,12.18,7.46,2.43,3.11,6.95,10.66,6.95,10.66h8.35c0.11,0.06-6.64-10.45-9.3-13.92C63,75.82,61.15,73.77,59.62,73.36ZM55.8,67.91H44.86V56.33H55.8A5.79,5.79,0,1,1,55.8,67.91Z" transform="translate(-10.54 -11.15)"/></svg>